<svg xmlns="http://www.w3.org/2000/svg" xmlns:xlink="http://www.w3.org/1999/xlink" id="Layer_1" x="0" y="0" version="1.1" viewBox="0 0 72 72" xml:space="preserve" style="enable-background:new 0 0 72 72"><style type="text/css">.st0{fill-rule:evenodd;clip-rule:evenodd}</style><title>02.icons/mainicons/samsung/squarcle_bg</title><g id="design-kit"><g id="_x38__x5F_cards_x5F_titlearea" transform="translate(-170.000000, -295.000000)"><g id="_x30_2.icons_x2F_mainicons_x2F_samsung_x2F_squarcle_x5F_bg" transform="translate(170.000000, 295.000000)"><path id="Fill" d="M63.9,8.1c-4.4-4.2-10.5-6.5-17.2-7.4C40.3-0.2,36,0,36,0s-4.4-0.2-10.7,0.6 C18.6,1.5,12.5,3.9,8.1,8.1c-4.2,4.4-6.5,10.5-7.4,17.2C-0.2,31.7,0,36,0,36s-0.2,4.4,0.6,10.7c0.9,6.7,3.3,12.7,7.4,17.2 c4.4,4.2,10.5,6.5,17.2,7.4C31.6,72.2,36,72,36,72s4.3,0.2,10.7-0.6c6.7-0.9,12.7-3.3,17.2-7.4c4.2-4.4,6.5-10.5,7.4-17.2 C72.2,40.3,72,36,72,36s0.2-4.3-0.6-10.7C70.5,18.6,68.1,12.5,63.9,8.1z" class="st0"/></g></g></g></svg>