<svg xmlns="http://www.w3.org/2000/svg" xmlns:xlink="http://www.w3.org/1999/xlink" id="Layer_1" x="0" y="0" version="1.1" viewBox="0 0 96 96" xml:space="preserve" style="enable-background:new 0 0 96 96"><style type="text/css">.st0{fill:#fff}</style><g id="Radio"><g id="_x30_15"><path d="M48,78.5c-16.8,0-30.5-13.7-30.5-30.5c0-16.8,13.7-30.5,30.5-30.5c16.8,0,30.5,13.7,30.5,30.5 C78.5,64.8,64.8,78.5,48,78.5z M48,20.5c-15.7,0-27.5,11.8-27.5,27.5c0,15.7,11.8,27.5,27.5,27.5S75.5,63.7,75.5,48 C75.5,32.3,63.7,20.5,48,20.5z" class="st0"/><path d="M66,48c0,9.9-8.1,18-18,18c-9.9,0-18-8.1-18-18c0-9.9,8.1-18,18-18C57.9,30,66,38.1,66,48z" class="st0"/></g></g></svg>