<svg xmlns="http://www.w3.org/2000/svg" xmlns:xlink="http://www.w3.org/1999/xlink" id="Layer_1" x="0" y="0" version="1.1" viewBox="0 0 96 96" xml:space="preserve" style="enable-background:new 0 0 96 96"><style type="text/css">.st0{fill:#fff}</style><g id="Radio"><g id="_x30_14"><path d="M48,78c-16.5,0-30-13.5-30-30c0-16.5,13.5-30,30-30s30,13.5,30,30C78,64.5,64.5,78,48,78z M48,21 c-15.4,0-27,11.6-27,27c0,15.4,11.6,27,27,27s27-11.6,27-27C75,32.6,63.4,21,48,21z" class="st0"/><path d="M64,48c0,8.8-7.2,16-16,16c-8.8,0-16-7.2-16-16c0-8.8,7.2-16,16-16C56.8,32,64,39.2,64,48z" class="st0"/></g></g></svg>