<svg xmlns="http://www.w3.org/2000/svg" xmlns:xlink="http://www.w3.org/1999/xlink" id="Layer_1" x="0" y="0" version="1.1" viewBox="0 0 96 62" xml:space="preserve" style="enable-background:new 0 0 96 62"><style type="text/css">.st0{opacity:.2}.st1{fill:#fff}</style><g id="Check"><g id="_x30_04_1_"><g id="_x32_0_x25_" class="st0"><path d="M48,3c15.5,0,28,12.5,28,28c0,15.5-12.5,28-28,28S20,46.5,20,31C20,15.5,32.5,3,48,3" class="st1"/></g><path d="M48,60c-16,0-29-13-29-29C19,15,32,2,48,2c16,0,29,13,29,29C77,47,64,60,48,60z M48,5.1 C33.7,5.1,22.1,16.7,22.1,31c0,14.3,11.6,25.9,25.9,25.9c14.3,0,25.9-11.6,25.9-25.9C73.9,16.7,62.3,5.1,48,5.1z" class="st1"/></g></g></svg>