<svg xmlns="http://www.w3.org/2000/svg" xmlns:xlink="http://www.w3.org/1999/xlink" id="Layer_1" x="0" y="0" version="1.1" viewBox="0 0 96 62" xml:space="preserve" style="enable-background:new 0 0 96 62"><style type="text/css">.st0{opacity:.8;enable-background:new}.st0,.st1{fill:#fff}</style><g id="Check"><g id="_x30_07_1_"><path id="_x38_0_x25_" d="M48,4.5c14.6,0,26.5,11.9,26.5,26.5c0,14.6-11.9,26.5-26.5,26.5S21.5,45.6,21.5,31 C21.5,16.4,33.4,4.5,48,4.5" class="st0"/><path d="M48,58.5c-15.2,0-27.5-12.3-27.5-27.5C20.5,15.8,32.8,3.5,48,3.5c15.2,0,27.5,12.3,27.5,27.5 C75.5,46.2,63.2,58.5,48,58.5z M48,6.5c-13.5,0-24.5,11-24.5,24.5c0,13.5,11,24.5,24.5,24.5s24.5-11,24.5-24.5 C72.5,17.5,61.5,6.5,48,6.5z" class="st1"/></g></g></svg>