<svg xmlns="http://www.w3.org/2000/svg" xmlns:xlink="http://www.w3.org/1999/xlink" id="Layer_1" x="0" y="0" version="1.1" viewBox="0 0 96 62" xml:space="preserve" style="enable-background:new 0 0 96 62"><style type="text/css">.st0{opacity:.5;enable-background:new}.st0,.st1{fill:#fff}</style><g id="Check"><g id="_x30_05_1_"><path id="_x35_0_x25_" d="M48,3.5c15.2,0,27.5,12.3,27.5,27.5c0,15.2-12.3,27.5-27.5,27.5S20.5,46.2,20.5,31 C20.5,15.8,32.8,3.5,48,3.5" class="st0"/><path d="M48,59.5c-15.7,0-28.5-12.8-28.5-28.5C19.5,15.3,32.3,2.5,48,2.5S76.5,15.3,76.5,31 C76.5,46.7,63.7,59.5,48,59.5z M48,5.6C34,5.6,22.6,17,22.6,31C22.6,45,34,56.4,48,56.4C62,56.4,73.4,45,73.4,31 C73.4,17,62,5.6,48,5.6z" class="st1"/></g></g></svg>