<svg xmlns="http://www.w3.org/2000/svg" xmlns:xlink="http://www.w3.org/1999/xlink" id="Layer_1" x="0" y="0" version="1.1" viewBox="0 0 96 62" xml:space="preserve" style="enable-background:new 0 0 96 62"><style type="text/css">.st0{opacity:.1;enable-background:new}.st0,.st1{fill:#fff}</style><g id="Check"><g id="_x30_03_1_"><path id="_x31_0_x25_" d="M48,2.5c15.7,0,28.5,12.8,28.5,28.5c0,15.7-12.8,28.5-28.5,28.5 c-15.7,0-28.5-12.8-28.5-28.5C19.5,15.3,32.3,2.5,48,2.5" class="st0"/><path d="M48,60.5c-16.3,0-29.5-13.2-29.5-29.5C18.5,14.7,31.7,1.5,48,1.5c16.3,0,29.5,13.2,29.5,29.5 C77.5,47.3,64.3,60.5,48,60.5z M48,4.6C33.4,4.6,21.6,16.4,21.6,31c0,14.6,11.8,26.4,26.4,26.4c14.6,0,26.4-11.8,26.4-26.4 C74.4,16.4,62.6,4.6,48,4.6z" class="st1"/></g></g></svg>