<svg xmlns="http://www.w3.org/2000/svg" xmlns:xlink="http://www.w3.org/1999/xlink" id="Layer_1" x="0" y="0" version="1.1" viewBox="0 0 96 96" xml:space="preserve" style="enable-background:new 0 0 96 96"><style type="text/css">.st0{fill:#fff}</style><g id="Radio"><g id="_x30_13"><path d="M48,77.5c-16.3,0-29.5-13.2-29.5-29.5c0-16.3,13.2-29.5,29.5-29.5c16.3,0,29.5,13.2,29.5,29.5 C77.5,64.3,64.3,77.5,48,77.5z M48,21.5c-15.2,0-26.5,11.3-26.5,26.5c0,15.2,11.3,26.5,26.5,26.5c15.2,0,26.5-11.3,26.5-26.5 C74.5,32.8,63.2,21.5,48,21.5z" class="st0"/><path d="M62,48c0,7.7-6.3,14-14,14c-7.7,0-14-6.3-14-14s6.3-14,14-14C55.7,34,62,40.3,62,48z" class="st0"/></g></g></svg>