<svg xmlns="http://www.w3.org/2000/svg" xmlns:xlink="http://www.w3.org/1999/xlink" id="Layer_1" x="0" y="0" version="1.1" viewBox="0 0 96 62" xml:space="preserve" style="enable-background:new 0 0 96 62"><style type="text/css">.st0{opacity:.7;enable-background:new}.st0,.st1{fill:#fff}</style><g id="Check"><g id="_x30_06_1_"><path id="_x37_0_x25_" d="M48,4c14.9,0,27,12.1,27,27c0,14.9-12.1,27-27,27c-14.9,0-27-12.1-27-27 C21,16.1,33.1,4,48,4" class="st0"/><path d="M48,59c-15.4,0-28-12.6-28-28C20,15.6,32.6,3,48,3s28,12.6,28,28C76,46.4,63.4,59,48,59z M48,6 C34.2,6,23,17.2,23,31c0,13.8,11.2,25,25,25c13.8,0,25-11.2,25-25C73,17.2,61.8,6,48,6z" class="st1"/></g></g></svg>