<svg xmlns="http://www.w3.org/2000/svg" xmlns:xlink="http://www.w3.org/1999/xlink" id="Layer_1" x="0" y="0" version="1.1" viewBox="0 0 96 62" xml:space="preserve" style="enable-background:new 0 0 96 62"><style type="text/css">.st0{opacity:3.000000e-02}.st1{fill:#fff}</style><g id="Check"><g id="_x30_01_1_"><g id="_x33__x25_" class="st0"><path d="M48,1.5c16.3,0,29.5,13.2,29.5,29.5c0,16.3-13.2,29.5-29.5,29.5S18.5,47.3,18.5,31 C18.5,14.7,31.7,1.5,48,1.5" class="st1"/></g><g><path d="M48,61.5c-16.8,0-30.5-13.7-30.5-30.5C17.5,14.2,31.2,0.5,48,0.5c16.8,0,30.5,13.7,30.5,30.5 C78.5,47.8,64.8,61.5,48,61.5z M48,3.6C32.9,3.6,20.6,15.9,20.6,31c0,15.1,12.3,27.4,27.4,27.4S75.4,46.1,75.4,31 C75.4,15.9,63.1,3.6,48,3.6z" class="st1"/></g></g></g></svg>