<svg xmlns="http://www.w3.org/2000/svg" xmlns:xlink="http://www.w3.org/1999/xlink" id="Layer_1" x="0" y="0" version="1.1" viewBox="0 0 96 62" xml:space="preserve" style="enable-background:new 0 0 96 62"><style type="text/css">.st0{opacity:.9;enable-background:new}.st0,.st1{fill:#fff}</style><g id="Check"><g id="_x30_08_1_"><path id="_x39_0_x25_" d="M48,5c14.4,0,26,11.6,26,26c0,14.4-11.6,26-26,26c-14.4,0-26-11.6-26-26 C22,16.6,33.6,5,48,5" class="st0"/><path d="M48,58c-14.9,0-27-12.1-27-27C21,16.1,33.1,4,48,4c14.9,0,27,12.1,27,27C75,45.9,62.9,58,48,58z M48,7 C34.8,7,24,17.8,24,31c0,13.2,10.8,24,24,24s24-10.8,24-24C72,17.8,61.2,7,48,7z" class="st1"/></g></g></svg>