<svg xmlns="http://www.w3.org/2000/svg" xmlns:xlink="http://www.w3.org/1999/xlink" id="Layer_1" x="0" y="0" version="1.1" viewBox="0 0 96 62" xml:space="preserve" style="enable-background:new 0 0 96 62"><style type="text/css">.st0{opacity:5.000000e-02;enable-background:new}.st0,.st1{fill:#fff}</style><g id="Check"><g id="_x30_02_1_"><path id="_x35__x25_" d="M48,2c16,0,29,13,29,29c0,16-13,29-29,29c-16,0-29-13-29-29C19,15,32,2,48,2" class="st0"/><path d="M48,61c-16.5,0-30-13.5-30-30C18,14.5,31.5,1,48,1s30,13.5,30,30C78,47.5,64.5,61,48,61z M48,4.1 C33.2,4.1,21.1,16.2,21.1,31c0,14.8,12.1,26.9,26.9,26.9S74.9,45.8,74.9,31C74.9,16.2,62.8,4.1,48,4.1z" class="st1"/></g></g></svg>