<svg xmlns="http://www.w3.org/2000/svg" xmlns:xlink="http://www.w3.org/1999/xlink" id="Layer_1" x="0" y="0" version="1.1" viewBox="0 0 96 62" xml:space="preserve" style="enable-background:new 0 0 96 62"><style type="text/css">.st0{fill:#fff}</style><g id="Radio"><g id="_x30_22"><path d="M48,62c-17.1,0-31-13.9-31-31C17,13.9,30.9,0,48,0c17.1,0,31,13.9,31,31C79,48.1,65.1,62,48,62z M48,3 C32.6,3,20,15.6,20,31c0,15.4,12.6,28,28,28c15.4,0,28-12.6,28-28C76,15.6,63.4,3,48,3z" class="st0"/><path d="M65.7,31c0,9.8-7.9,17.8-17.8,17.8c-9.8,0-17.8-7.9-17.8-17.8c0-9.8,7.9-17.8,17.8-17.8 C57.8,13.2,65.7,21.2,65.7,31z" class="st0"/></g></g></svg>