<svg xmlns="http://www.w3.org/2000/svg" xmlns:xlink="http://www.w3.org/1999/xlink" id="Layer_1" x="0" y="0" version="1.1" viewBox="0 0 96 62" xml:space="preserve" style="enable-background:new 0 0 96 62"><style type="text/css">.st0{fill:#fff}</style><g id="Radio"><g id="_x30_15"><path d="M48,61.5c-16.8,0-30.5-13.7-30.5-30.5C17.5,14.2,31.2,0.5,48,0.5c16.8,0,30.5,13.7,30.5,30.5 C78.5,47.8,64.8,61.5,48,61.5z M48,3.5C32.3,3.5,20.5,15.3,20.5,31c0,15.7,11.8,27.5,27.5,27.5S75.5,46.7,75.5,31 C75.5,15.3,63.7,3.5,48,3.5z" class="st0"/><path d="M66,31c0,9.9-8.1,18-18,18c-9.9,0-18-8.1-18-18c0-9.9,8.1-18,18-18C57.9,13,66,21.1,66,31z" class="st0"/></g></g></svg>