<svg xmlns="http://www.w3.org/2000/svg" xmlns:xlink="http://www.w3.org/1999/xlink" id="Layer_1" width="72" height="72" x="0" y="0" enable-background="new 0 0 72 72" version="1.1" viewBox="0 0 72 72" xml:space="preserve"><path fill="#FFF" d="M48.584,19.564v-6.375c0-2.274-1.851-4.125-4.125-4.125h-15.75c-2.274,0-4.125,1.851-4.125,4.125v6.375	H12.209v5.25h5.98h0.117l2.25,35.25c0,2.486,2.015,4.5,4.5,4.5h23.25c2.484,0,4.5-2.014,4.5-4.5l2.25-35.25h5.902v-5.25H48.584z M29.834,14.314h13.5v5.25h-13.5V14.314z M33.213,55.582h-5.25V28.586h5.25V55.582z M45.205,55.582h-5.25V28.586h5.25V55.582z"/></svg>