<svg xmlns="http://www.w3.org/2000/svg" xmlns:xlink="http://www.w3.org/1999/xlink" id="Layer_1" x="0" y="0" version="1.1" viewBox="0 0 60 60" xml:space="preserve" style="enable-background:new 0 0 60 60"><style type="text/css">.st0{fill:#fff}</style><g><path id="path-1" d="M55.1,27.8H32.2V4.9c0-1.2-1-2.2-2.2-2.2s-2.2,1-2.2,2.2v22.9H4.9c-1.2,0-2.2,1-2.2,2.2 s1,2.2,2.2,2.2h22.9v22.9c0,1.2,1,2.2,2.2,2.2s2.2-1,2.2-2.2V32.2h22.9c1.2,0,2.2-1,2.2-2.2S56.4,27.8,55.1,27.8" class="st0"/></g><title>PNG/Light/Winset/Action_bar/tw_ic_ab_add_mtrl</title><desc>Created with Sketch.</desc><g><path d="M55.1,27.8H32.2V4.9c0-1.2-1-2.2-2.2-2.2c-1.2,0-2.2,1-2.2,2.2v22.9H4.9c-1.2,0-2.2,1-2.2,2.2c0,1.2,1,2.2,2.2,2.2h22.9 v22.9c0,1.2,1,2.2,2.2,2.2c1.2,0,2.2-1,2.2-2.2V32.2h22.9c1.2,0,2.2-1,2.2-2.2C57.4,28.8,56.4,27.8,55.1,27.8"/></g></svg>