<svg xmlns="http://www.w3.org/2000/svg" xmlns:xlink="http://www.w3.org/1999/xlink" id="Layer_1" x="0" y="0" version="1.1" viewBox="0 0 96 96" xml:space="preserve" style="enable-background:new 0 0 96 96"><style type="text/css">.st0{opacity:.5;enable-background:new}.st0,.st1{fill:#fff}</style><g id="Check"><g id="_x30_05_1_"><path id="_x35_0_x25_" d="M48,20.5c15.2,0,27.5,12.3,27.5,27.5c0,15.2-12.3,27.5-27.5,27.5S20.5,63.2,20.5,48 C20.5,32.8,32.8,20.5,48,20.5" class="st0"/><path d="M48,76.5c-15.7,0-28.5-12.8-28.5-28.5c0-15.7,12.8-28.5,28.5-28.5S76.5,32.3,76.5,48 C76.5,63.7,63.7,76.5,48,76.5z M48,22.5c-14.6,0-25.5,10.9-25.5,25.5c0,14.6,10.9,25.5,25.5,25.5c14.6,0,25.5-10.9,25.5-25.5 C73.5,33.4,62.6,22.5,48,22.5z" class="st1"/></g></g></svg>