<svg xmlns="http://www.w3.org/2000/svg" xmlns:xlink="http://www.w3.org/1999/xlink" id="Layer_1" x="0" y="0" version="1.1" viewBox="0 0 96 96" xml:space="preserve" style="enable-background:new 0 0 96 96"><style type="text/css">.st0{opacity:.1;enable-background:new}.st0,.st1{fill:#fff}</style><g id="Check"><g id="_x30_03_1_"><path id="_x31_0_x25_" d="M48,19.5c15.7,0,28.5,12.8,28.5,28.5c0,15.7-12.8,28.5-28.5,28.5 c-15.7,0-28.5-12.8-28.5-28.5C19.5,32.3,32.3,19.5,48,19.5" class="st0"/><path d="M48,77.5c-16.3,0-29.5-13.2-29.5-29.5c0-16.3,13.2-29.5,29.5-29.5c16.3,0,29.5,13.2,29.5,29.5 C77.5,64.3,64.3,77.5,48,77.5z M48,21.5c-15.2,0-26.5,11.3-26.5,26.5c0,15.2,11.3,26.5,26.5,26.5c15.2,0,26.5-11.3,26.5-26.5 C74.5,32.8,63.2,21.5,48,21.5z" class="st1"/></g></g></svg>