<svg xmlns="http://www.w3.org/2000/svg" xmlns:xlink="http://www.w3.org/1999/xlink" id="Layer_1" width="96" height="96" x="0" y="0" enable-background="new 0 0 96 96" version="1.1" viewBox="0 0 96 96" xml:space="preserve"><path fill="#777" fill-opacity=".659" d="M47.999,16.25C30.493,16.25,16.25,30.493,16.25,48	c0,17.507,14.243,31.75,31.749,31.75C65.507,79.75,79.75,65.507,79.75,48C79.75,30.493,65.507,16.25,47.999,16.25z M47.999,79	C30.88,79,17,65.122,17,48s13.88-31,30.999-31C65.123,17,79,30.877,79,48S65.123,79,47.999,79z"/><path fill="#231F20" fill-opacity=".318" d="M48,17c-17.112,0-31,13.888-31,31c0,17.112,13.888,31,31,31c17.112,0,31-13.888,31-31	C79,30.888,65.112,17,48,17z"/><path fill="#797979" fill-opacity=".647" d="M63.611,32.895L41.905,54.358l-10.26-10.146l-4.046,4.001l14.307,14.146	l25.751-25.463L63.611,32.895z M28.666,48.214l2.979-2.947l10.26,10.146L63.611,33.95l2.979,2.947L41.905,61.305L28.666,48.214z"/></svg>