<svg xmlns="http://www.w3.org/2000/svg" xmlns:xlink="http://www.w3.org/1999/xlink" id="Layer_1" x="0" y="0" version="1.1" viewBox="0 0 96 62" xml:space="preserve" style="enable-background:new 0 0 96 62"><style type="text/css">.st0{fill:#fff}</style><g id="Radio"><g id="_x30_18"><path d="M48,62c-17.1,0-31-13.9-31-31C17,13.9,30.9,0,48,0c17.1,0,31,13.9,31,31C79,48.1,65.1,62,48,62z M48,3 C32,3,20,15,20,31c0,16,12,28,28,28c16,0,28-12,28-28C76,15,64,3,48,3z" class="st0"/><path d="M67.2,31c0,10.6-8.6,19.2-19.2,19.2c-10.6,0-19.2-8.6-19.2-19.2c0-10.6,8.6-19.2,19.2-19.2 C58.6,11.7,67.2,20.4,67.2,31z" class="st0"/></g></g></svg>