<svg xmlns="http://www.w3.org/2000/svg" xmlns:xlink="http://www.w3.org/1999/xlink" id="Layer_1" x="0" y="0" version="1.1" viewBox="0 0 96 62" xml:space="preserve" style="enable-background:new 0 0 96 62"><style type="text/css">.st0{fill:#fff}</style><g id="Radio"><g id="_x30_14"><path d="M48,61c-16.5,0-30-13.5-30-30C18,14.5,31.5,1,48,1s30,13.5,30,30C78,47.5,64.5,61,48,61z M48,4 C32.6,4,21,15.6,21,31c0,15.4,11.6,27,27,27s27-11.6,27-27C75,15.6,63.4,4,48,4z" class="st0"/><path d="M64,31c0,8.8-7.2,16-16,16c-8.8,0-16-7.2-16-16c0-8.8,7.2-16,16-16C56.8,15,64,22.2,64,31z" class="st0"/></g></g></svg>