<svg xmlns="http://www.w3.org/2000/svg" xmlns:xlink="http://www.w3.org/1999/xlink" id="Layer_1" x="0" y="0" version="1.1" viewBox="0 0 96 62" xml:space="preserve" style="enable-background:new 0 0 96 62"><style type="text/css">.st0{fill:#fff}</style><g id="Radio"><g id="_x30_12"><path d="M48,60c-16,0-29-13-29-29C19,15,32,2,48,2c16,0,29,13,29,29C77,47,64,60,48,60z M48,5C33.1,5,22,16.1,22,31 c0,14.9,11.1,26,26,26c14.9,0,26-11.1,26-26C74,16.1,62.9,5,48,5z" class="st0"/><path d="M60,31c0,6.6-5.4,12-12,12c-6.6,0-12-5.4-12-12c0-6.6,5.4-12,12-12C54.6,19,60,24.4,60,31z" class="st0"/></g></g></svg>